<svg width="50" height="50" viewBox="0 0 50 50" fill="none" xmlns="http://www.w3.org/2000/svg">
<g clip-path="url(#clip0_9_2)">
<path d="M15 18.3333L16.3333 19.3333C16.519 19.0857 16.6321 18.7913 16.6599 18.483C16.6877 18.1748 16.6291 17.8648 16.4907 17.588C16.3523 17.3111 16.1395 17.0783 15.8762 16.9156C15.6129 16.7529 15.3095 16.6667 15 16.6667V18.3333ZM10 25L8.66667 24C8.48095 24.2476 8.36786 24.5421 8.34007 24.8503C8.31227 25.1586 8.37087 25.4685 8.50929 25.7454C8.64771 26.0222 8.86049 26.255 9.12378 26.4178C9.38707 26.5805 9.69048 26.6667 10 26.6667V25ZM42.4533 9.51335L43.7267 10.59L42.4533 9.51335ZM6.66667 20H15V16.6667H6.66667V20ZM13.6667 17.3333L8.66667 24L11.3333 26L16.3333 19.3333L13.6667 17.3333ZM10 26.6667H11.6667V23.3333H10V26.6667ZM11.6667 30H6.66667V33.3333H11.6667V30ZM13.3333 28.3333C13.3333 28.7754 13.1577 29.1993 12.8452 29.5119C12.5326 29.8244 12.1087 30 11.6667 30V33.3333C12.9927 33.3333 14.2645 32.8066 15.2022 31.8689C16.1399 30.9312 16.6667 29.6594 16.6667 28.3333H13.3333ZM11.6667 26.6667C12.1087 26.6667 12.5326 26.8423 12.8452 27.1548C13.1577 27.4674 13.3333 27.8913 13.3333 28.3333H16.6667C16.6667 27.0073 16.1399 25.7355 15.2022 24.7978C14.2645 23.8601 12.9927 23.3333 11.6667 23.3333V26.6667ZM26.6667 16.6667H25V20H26.6667V16.6667ZM20 21.6667V25H23.3333V21.6667H20ZM20 25V28.3333H23.3333V25H20ZM25 23.3333H21.6667V26.6667H25V23.3333ZM30 28.3333C30 27.0073 29.4732 25.7355 28.5355 24.7978C27.5979 23.8601 26.3261 23.3333 25 23.3333V26.6667C25.442 26.6667 25.8659 26.8423 26.1785 27.1548C26.4911 27.4674 26.6667 27.8913 26.6667 28.3333H30ZM25 33.3333C26.3261 33.3333 27.5979 32.8066 28.5355 31.8689C29.4732 30.9312 30 29.6594 30 28.3333H26.6667C26.6667 28.7754 26.4911 29.1993 26.1785 29.5119C25.8659 29.8244 25.442 30 25 30V33.3333ZM25 30C24.558 30 24.134 29.8244 23.8215 29.5119C23.5089 29.1993 23.3333 28.7754 23.3333 28.3333H20C20 29.6594 20.5268 30.9312 21.4645 31.8689C22.4021 32.8066 23.6739 33.3333 25 33.3333V30ZM25 16.6667C23.6739 16.6667 22.4021 17.1935 21.4645 18.1311C20.5268 19.0688 20 20.3406 20 21.6667H23.3333C23.3333 21.2247 23.5089 20.8007 23.8215 20.4882C24.134 20.1756 24.558 20 25 20V16.6667ZM40 21.6667V28.3333H43.3333V21.6667H40ZM36.6667 28.3333V21.6667H33.3333V28.3333H36.6667ZM38.3333 30C37.8913 30 37.4674 29.8244 37.1548 29.5119C36.8423 29.1993 36.6667 28.7754 36.6667 28.3333H33.3333C33.3333 29.6594 33.8601 30.9312 34.7978 31.8689C35.7355 32.8066 37.0073 33.3333 38.3333 33.3333V30ZM40 28.3333C40 28.7754 39.8244 29.1993 39.5118 29.5119C39.1993 29.8244 38.7754 30 38.3333 30V33.3333C39.6594 33.3333 40.9312 32.8066 41.8689 31.8689C42.8065 30.9312 43.3333 29.6594 43.3333 28.3333H40ZM38.3333 20C38.7754 20 39.1993 20.1756 39.5118 20.4882C39.8244 20.8007 40 21.2247 40 21.6667H43.3333C43.3333 20.3406 42.8065 19.0688 41.8689 18.1311C40.9312 17.1935 39.6594 16.6667 38.3333 16.6667V20ZM38.3333 16.6667C37.0073 16.6667 35.7355 17.1935 34.7978 18.1311C33.8601 19.0688 33.3333 20.3406 33.3333 21.6667H36.6667C36.6667 21.2247 36.8423 20.8007 37.1548 20.4882C37.4674 20.1756 37.8913 20 38.3333 20V16.6667ZM25 46.6667C19.2536 46.6667 13.7426 44.3839 9.67935 40.3207C5.61606 36.2574 3.33333 30.7464 3.33333 25H0C0 31.6304 2.63392 37.9893 7.32233 42.6777C12.0107 47.3661 18.3696 50 25 50V46.6667ZM46.6667 25C46.6667 27.8453 46.1062 30.6628 45.0174 33.2915C43.9285 35.9202 42.3326 38.3087 40.3206 40.3207C38.3087 42.3326 35.9202 43.9285 33.2915 45.0174C30.6628 46.1063 27.8453 46.6667 25 46.6667V50C31.6304 50 37.9893 47.3661 42.6777 42.6777C47.3661 37.9893 50 31.6304 50 25H46.6667ZM25 1.38128e-05C18.3696 1.38128e-05 12.0107 2.63393 7.32233 7.32234C2.63392 12.0108 0 18.3696 0 25H3.33333C3.33333 19.2537 5.61606 13.7427 9.67935 9.67937C13.7426 5.61608 19.2536 3.33335 25 3.33335V1.38128e-05ZM45 10C45.442 10 45.866 10.1756 46.1785 10.4882C46.4911 10.8007 46.6667 11.2247 46.6667 11.6667H50C50 10.3406 49.4732 9.06883 48.5355 8.13115C47.5979 7.19346 46.3261 6.66668 45 6.66668V10ZM45 13.3333C44.558 13.3333 44.134 13.1578 43.8215 12.8452C43.5089 12.5326 43.3333 12.1087 43.3333 11.6667H40C40 12.9928 40.5268 14.2645 41.4645 15.2022C42.4021 16.1399 43.6739 16.6667 45 16.6667V13.3333ZM43.3333 11.6667C43.3333 11.2567 43.48 10.8833 43.7267 10.59L41.1833 8.43668C40.4467 9.30668 40 10.4367 40 11.6667H43.3333ZM43.7267 10.59C43.8829 10.4046 44.0779 10.2558 44.2979 10.1538C44.5179 10.0519 44.7575 9.9994 45 10V6.66668C43.4667 6.66668 42.0967 7.35668 41.1833 8.43668L43.7267 10.59ZM25 3.33335C31.4467 3.33335 37.2367 6.14668 41.2067 10.62L43.7 8.40668C41.3566 5.76045 38.4776 3.64249 35.2537 2.19318C32.0298 0.743865 28.5347 -0.00370584 25 1.38128e-05V3.33335ZM44.5133 15.5667C45.8933 18.42 46.6667 21.6167 46.6667 25H50C50 21.1 49.1067 17.41 47.5133 14.1167L44.5133 15.57V15.5667ZM46.6667 11.6667C46.6671 12.0205 46.555 12.3653 46.3464 12.6512C46.1379 12.937 45.8438 13.1491 45.5067 13.2567L46.52 16.43C47.5302 16.1077 48.4118 15.4725 49.0373 14.6162C49.6629 13.76 50 12.7271 50 11.6667H46.6667ZM45.5067 13.2567C45.3427 13.3082 45.1718 13.3341 45 13.3333V16.6667C45.5157 16.6677 46.0284 16.589 46.52 16.4333L45.5067 13.2567Z" fill="#05BB75"/>
</g>
<defs>
<clipPath id="clip0_9_2">
<rect width="50" height="50" fill="white"/>
</clipPath>
</defs>
</svg>
