<svg width="50" height="50" viewBox="0 0 50 50" fill="none" xmlns="http://www.w3.org/2000/svg">
<path d="M31.25 46.875H26.5625C25.734 46.8742 24.9396 46.5447 24.3537 45.9588C23.7678 45.3729 23.4383 44.5786 23.4375 43.75V35.9375H26.5625V43.75H31.25V35.9375H34.375V29.6875C34.3746 29.2732 34.2098 28.876 33.9169 28.5831C33.624 28.2902 33.2268 28.1254 32.8125 28.125H19.1875L16.0625 18.75H6.25C5.83573 18.7504 5.43854 18.9152 5.1456 19.2081C4.85267 19.501 4.68791 19.8982 4.6875 20.3125V29.6875H7.8125V43.75H14.0625V32.8125H17.1875V43.75C17.1867 44.5786 16.8572 45.3729 16.2713 45.9588C15.6854 46.5447 14.891 46.8742 14.0625 46.875H7.8125C6.98395 46.8742 6.18958 46.5447 5.6037 45.9588C5.01783 45.3729 4.68833 44.5786 4.6875 43.75V32.8125C3.85895 32.8117 3.06458 32.4822 2.4787 31.8963C1.89283 31.3104 1.56333 30.5161 1.5625 29.6875V20.3125C1.56374 19.0697 2.058 17.8781 2.93681 16.9993C3.81562 16.1205 5.00718 15.6262 6.25 15.625H16.0625C16.7183 15.6246 17.3576 15.8307 17.8896 16.2141C18.4217 16.5975 18.8195 17.1387 19.0266 17.7609L21.4375 25H32.8125C34.0553 25.0012 35.2469 25.4955 36.1257 26.3743C37.0045 27.2531 37.4988 28.4447 37.5 29.6875V35.9375C37.4992 36.7661 37.1697 37.5604 36.5838 38.1463C35.9979 38.7322 35.2035 39.0617 34.375 39.0625V43.75C34.3742 44.5786 34.0447 45.3729 33.4588 45.9588C32.8729 46.5447 32.0785 46.8742 31.25 46.875ZM43.75 46.875H40.625V29.6875H45.3125V20.3125C45.3121 19.8982 45.1473 19.501 44.8544 19.2081C44.5615 18.9152 44.1643 18.7504 43.75 18.75H37.5V15.625H43.75C44.9928 15.6262 46.1844 16.1205 47.0632 16.9993C47.942 17.8781 48.4363 19.0697 48.4375 20.3125V29.6875C48.4367 30.5161 48.1072 31.3104 47.5213 31.8963C46.9354 32.4822 46.141 32.8117 45.3125 32.8125H43.75V46.875ZM10.9375 14.0625C9.70137 14.0625 8.49299 13.6959 7.46519 13.0092C6.43738 12.3224 5.6363 11.3463 5.16325 10.2043C4.69021 9.06224 4.56643 7.80557 4.80759 6.59319C5.04875 5.38081 5.644 4.26716 6.51808 3.39309C7.39216 2.51901 8.5058 1.92375 9.71819 1.68259C10.9306 1.44144 12.1872 1.56521 13.3293 2.03826C14.4713 2.5113 15.4474 3.31238 16.1342 4.34019C16.8209 5.368 17.1875 6.57637 17.1875 7.8125C17.1854 9.46947 16.5263 11.058 15.3546 12.2296C14.183 13.4013 12.5945 14.0604 10.9375 14.0625V14.0625ZM10.9375 4.6875C10.3194 4.6875 9.71525 4.87078 9.20134 5.21416C8.68744 5.55754 8.2869 6.0456 8.05038 6.61662C7.81385 7.18764 7.75197 7.81597 7.87255 8.42216C7.99312 9.02835 8.29075 9.58517 8.72779 10.0222C9.16483 10.4593 9.72165 10.7569 10.3278 10.8775C10.934 10.998 11.5624 10.9362 12.1334 10.6996C12.7044 10.4631 13.1925 10.0626 13.5358 9.54866C13.8792 9.03476 14.0625 8.43057 14.0625 7.8125C14.0617 6.98396 13.7322 6.18958 13.1463 5.60371C12.5604 5.01784 11.766 4.68833 10.9375 4.6875V4.6875ZM39.0625 14.0625C37.8264 14.0625 36.618 13.6959 35.5902 13.0092C34.5624 12.3224 33.7613 11.3463 33.2883 10.2043C32.8152 9.06224 32.6914 7.80557 32.9326 6.59319C33.1737 5.38081 33.769 4.26716 34.6431 3.39309C35.5172 2.51901 36.6308 1.92375 37.8432 1.68259C39.0556 1.44144 40.3122 1.56521 41.4543 2.03826C42.5963 2.5113 43.5724 3.31238 44.2592 4.34019C44.9459 5.368 45.3125 6.57637 45.3125 7.8125C45.3104 9.46947 44.6513 11.058 43.4796 12.2296C42.308 13.4013 40.7195 14.0604 39.0625 14.0625V14.0625ZM39.0625 4.6875C38.4444 4.6875 37.8402 4.87078 37.3263 5.21416C36.8124 5.55754 36.4119 6.0456 36.1754 6.61662C35.9389 7.18764 35.877 7.81597 35.9975 8.42216C36.1181 9.02835 36.4158 9.58517 36.8528 10.0222C37.2898 10.4593 37.8467 10.7569 38.4528 10.8775C39.059 10.998 39.6874 10.9362 40.2584 10.6996C40.8294 10.4631 41.3175 10.0626 41.6608 9.54866C42.0042 9.03476 42.1875 8.43057 42.1875 7.8125C42.1867 6.98396 41.8572 6.18958 41.2713 5.60371C40.6854 5.01784 39.891 4.68833 39.0625 4.6875V4.6875Z" fill="#05BB75"/>
<path d="M28.9062 23.4375C27.8246 23.4375 26.7673 23.1168 25.868 22.5159C24.9686 21.9149 24.2677 21.0608 23.8538 20.0616C23.4399 19.0623 23.3316 17.9627 23.5426 16.9019C23.7536 15.841 24.2744 14.8666 25.0393 14.1018C25.8041 13.3369 26.7785 12.8161 27.8393 12.6051C28.9002 12.3941 29.9998 12.5024 30.999 12.9163C31.9983 13.3302 32.8524 14.0311 33.4533 14.9305C34.0543 15.8298 34.375 16.8871 34.375 17.9688C34.3733 19.4186 33.7966 20.8087 32.7714 21.8339C31.7462 22.8591 30.3561 23.4358 28.9062 23.4375V23.4375ZM28.9062 15.625C28.4427 15.625 27.9896 15.7625 27.6041 16.02C27.2187 16.2775 26.9183 16.6436 26.7409 17.0718C26.5635 17.5001 26.5171 17.9714 26.6075 18.426C26.698 18.8806 26.9212 19.2983 27.249 19.626C27.5767 19.9538 27.9944 20.177 28.449 20.2675C28.9037 20.3579 29.3749 20.3115 29.8032 20.1341C30.2314 19.9567 30.5975 19.6563 30.855 19.2709C31.1125 18.8854 31.25 18.4323 31.25 17.9688C31.2492 17.3474 31.002 16.7517 30.5626 16.3124C30.1233 15.873 29.5276 15.6258 28.9062 15.625V15.625Z" fill="#05BB75"/>
</svg>
