<svg width="47" height="40" viewBox="0 0 47 40" fill="none" xmlns="http://www.w3.org/2000/svg">
<path d="M33.5892 9.77643C33.5892 10.1627 33.4747 10.5403 33.26 10.8615C33.0454 11.1827 32.7404 11.4331 32.3835 11.5809C32.0266 11.7287 31.6339 11.7674 31.255 11.692C30.8762 11.6167 30.5282 11.4307 30.255 11.1575C29.9819 10.8844 29.7958 10.5363 29.7205 10.1575C29.6451 9.7786 29.6838 9.38589 29.8316 9.02901C29.9794 8.67212 30.2298 8.36708 30.551 8.15247C30.8722 7.93786 31.2498 7.82331 31.6361 7.82331C32.1541 7.82331 32.6509 8.02909 33.0171 8.39537C33.3834 8.76165 33.5892 9.25843 33.5892 9.77643ZM23.7845 22.1592C23.6673 22.0601 23.5314 21.9854 23.3849 21.9396C23.2384 21.8937 23.0842 21.8776 22.9313 21.8921C22.7785 21.9067 22.6301 21.9516 22.4949 22.0243C22.3596 22.097 22.2403 22.196 22.1439 22.3155L14.3314 31.6905C14.1913 31.8616 14.1025 32.0689 14.0753 32.2883C14.0481 32.5078 14.0835 32.7305 14.1774 32.9307C14.2714 33.1308 14.4201 33.3003 14.6063 33.4196C14.7925 33.5388 15.0087 33.603 15.2298 33.6046C15.4024 33.6061 15.5731 33.5682 15.7288 33.4937C15.8845 33.4193 16.0211 33.3102 16.1283 33.1749L23.9408 23.7999C24.0399 23.6826 24.1146 23.5468 24.1604 23.4002C24.2063 23.2537 24.2224 23.0995 24.2079 22.9467C24.1933 22.7938 24.1484 22.6455 24.0757 22.5102C24.003 22.375 23.904 22.2557 23.7845 22.1592ZM46.0892 12.1202C46.0888 12.3139 46.0405 12.5044 45.9485 12.6749C45.8564 12.8453 45.7236 12.9902 45.5619 13.0967L41.4017 15.8702V19.9327C41.3914 25.2131 39.2892 30.2743 35.5553 34.0082C31.8215 37.742 26.7603 39.8442 21.4798 39.8546H1.16732C0.947988 39.8537 0.733295 39.7913 0.547664 39.6745C0.362034 39.5577 0.212917 39.3911 0.117277 39.1937C0.021636 38.9963 -0.0166895 38.776 0.00665957 38.5579C0.0300086 38.3399 0.114095 38.1327 0.249354 37.96L18.7454 14.835V11.3389C18.7429 8.62176 19.717 5.99418 21.4903 3.93537C23.2635 1.87657 25.7177 0.523725 28.4052 0.123553C31.0928 -0.276619 33.8346 0.302547 36.1307 1.75543C38.4269 3.2083 40.1243 5.4381 40.9134 8.03815L45.5619 11.1436C45.7236 11.2501 45.8564 11.3951 45.9485 11.5655C46.0405 11.7359 46.0888 11.9265 46.0892 12.1202ZM42.8079 12.1202L39.2533 9.7569C39.0165 9.59219 38.844 9.35068 38.765 9.07331C38.212 6.96125 36.9089 5.12281 35.0991 3.90157C33.2894 2.68034 31.0969 2.15987 28.9313 2.43744C26.7658 2.71501 24.7754 3.77163 23.3322 5.40982C21.889 7.04801 21.0916 9.15568 21.0892 11.3389V15.2452C21.0894 15.508 20.9999 15.763 20.8353 15.9678L3.60873 37.5108H21.4798C26.1402 37.5056 30.6083 35.652 33.9037 32.3566C37.1991 29.0612 39.0528 24.5931 39.0579 19.9327V15.2452C39.0583 15.0515 39.1067 14.8609 39.1987 14.6905C39.2907 14.5201 39.4235 14.3751 39.5853 14.2686L42.8079 12.1202Z" fill="#05BB75"/>
</svg>
